<svg xmlns="http://www.w3.org/2000/svg" width="1080" height="1080" viewBox="0 0 1080 1080">
  <!-- Adaptive-icon foreground: all content stays inside the center 66/108
       safe-zone circle (radius ~330 around 540,540). -->
  <defs>
    <radialGradient id="fur" cx="0.38" cy="0.32" r="0.9">
      <stop offset="0" stop-color="#D2A87E"/>
      <stop offset="0.55" stop-color="#B07B4F"/>
      <stop offset="1" stop-color="#7C5636"/>
    </radialGradient>
    <radialGradient id="red" cx="0.35" cy="0.3" r="0.95">
      <stop offset="0" stop-color="#F48A85"/>
      <stop offset="0.5" stop-color="#E53935"/>
      <stop offset="1" stop-color="#8E1F1C"/>
    </radialGradient>
    <radialGradient id="blue" cx="0.35" cy="0.3" r="0.95">
      <stop offset="0" stop-color="#7EC3F7"/>
      <stop offset="0.5" stop-color="#1E88E5"/>
      <stop offset="1" stop-color="#104E8A"/>
    </radialGradient>
    <radialGradient id="yellow" cx="0.35" cy="0.3" r="0.95">
      <stop offset="0" stop-color="#FFF390"/>
      <stop offset="0.5" stop-color="#FDD835"/>
      <stop offset="1" stop-color="#A98F0F"/>
    </radialGradient>
  </defs>

  <!-- ears -->
  <circle cx="395" cy="330" r="88" fill="url(#fur)"/>
  <circle cx="685" cy="330" r="88" fill="url(#fur)"/>
  <circle cx="395" cy="330" r="48" fill="#EFDDC5"/>
  <circle cx="685" cy="330" r="48" fill="#EFDDC5"/>

  <!-- head -->
  <circle cx="540" cy="470" r="205" fill="url(#fur)"/>
  <ellipse cx="540" cy="545" rx="100" ry="75" fill="#EFDDC5"/>

  <!-- face -->
  <circle cx="465" cy="440" r="21" fill="#4E342E"/>
  <circle cx="615" cy="440" r="21" fill="#4E342E"/>
  <circle cx="471" cy="433" r="7" fill="#FFFFFF"/>
  <circle cx="621" cy="433" r="7" fill="#FFFFFF"/>
  <ellipse cx="540" cy="520" rx="30" ry="21" fill="#4E342E"/>
  <path d="M 495 560 Q 540 600 585 560" stroke="#4E342E" stroke-width="14" fill="none" stroke-linecap="round"/>

  <!-- balls burying the teddy -->
  <circle cx="385" cy="700" r="118" fill="url(#red)"/>
  <path fill="#FFFFFF" opacity="0.85" d="M 385 645 L 399.7 679.8 L 437.3 683 L 408.8 707.7 L 417.3 744.5 L 385 725 L 352.7 744.5 L 361.2 707.7 L 332.7 683 L 370.3 679.8 Z"/>
  <circle cx="345" cy="658" r="26" fill="#FFFFFF" opacity="0.5"/>

  <circle cx="695" cy="700" r="118" fill="url(#blue)"/>
  <g fill="#FFFFFF" opacity="0.85">
    <circle cx="757" cy="700" r="19"/>
    <circle cx="726" cy="753" r="19"/>
    <circle cx="664" cy="753" r="19"/>
    <circle cx="633" cy="700" r="19"/>
    <circle cx="664" cy="647" r="19"/>
    <circle cx="726" cy="647" r="19"/>
    <circle cx="695" cy="700" r="19"/>
  </g>
  <circle cx="655" cy="658" r="26" fill="#FFFFFF" opacity="0.5"/>

  <circle cx="540" cy="740" r="128" fill="url(#yellow)"/>
  <circle cx="495" cy="692" r="30" fill="#FFFFFF" opacity="0.55"/>
</svg>
